<svg xmlns="http://www.w3.org/2000/svg" viewBox="0 0 100 100">
  <g fill="#646cff">
    <path d="M50 0C22.4 0 0 22.4 0 50s22.4 50 50 50 50-22.4 50-50S77.6 0 50 0zm0 90C27.3 90 10 72.7 10 50S27.3 10 50 10s40 17.3 40 40-17.3 40-40 40z"/>
    <path d="M50 15C32.3 15 15 32.3 15 50s17.3 35 35 35 35-17.3 35-35S67.7 15 50 15zm0 60c-13.3 0-25-11.7-25-25S36.7 25 50 25s25 11.7 25 25-11.7 25-25 25z"/>
  </g>
  <g fill="#fff">
    <path d="M50 20C36.8 20 26 30.8 26 44s10.8 24 24 24 24-10.8 24-24S63.2 20 50 20zm0 40c-8.8 0-16-7.2-16-16s7.2-16 16-16 16 7.2 16 16-7.2 16-16 16z"/>
  </g>
</svg>